<?xml version="1.0" encoding="utf-8"?>
<!-- Generator: Adobe Illustrator 22.0.1, SVG Export Plug-In . SVG Version: 6.00 Build 0)  -->
<svg version="1.1" id="Capa_1" xmlns="http://www.w3.org/2000/svg" xmlns:xlink="http://www.w3.org/1999/xlink" x="0px" y="0px"
	 viewBox="0 0 100 21.3" style="enable-background:new 0 0 100 21.3;" xml:space="preserve">
<style type="text/css">
	.st0{fill:#FFFFFF;}
</style>
<g>
	<g>
		<g>
			<path class="st0" d="M5.3,15.4c0.9,0,1.7-0.5,2.5-1.4l1.6,1.8c-1.3,1.3-2.6,2-4.1,2c-1.5,0-2.7-0.5-3.7-1.4
				c-1-0.9-1.5-2.2-1.5-3.7c0-1.5,0.5-2.7,1.5-3.7c1-0.9,2.3-1.4,3.7-1.4c0.7,0,1.4,0.1,2.1,0.4c0.7,0.3,1.4,0.7,1.9,1.3l-1.4,1.9
				c-0.3-0.4-0.7-0.7-1.2-0.9c-0.5-0.2-0.9-0.3-1.4-0.3c-0.7,0-1.3,0.2-1.9,0.7c-0.5,0.5-0.8,1.1-0.8,2c0,0.8,0.3,1.5,0.8,1.9
				C4,15.2,4.6,15.4,5.3,15.4z"/>
			<path class="st0" d="M16.4,10.3c-0.8,0-1.4,0.3-1.8,0.9c-0.4,0.6-0.6,1.3-0.6,2.3v4.3h-2.7V7.9H14v1.3c0.4-0.4,0.8-0.7,1.3-1
				c0.5-0.3,1.1-0.4,1.6-0.4l0,2.6H16.4z"/>
			<path class="st0" d="M19,6.6c-0.3-0.3-0.5-0.7-0.5-1.1c0-0.5,0.2-0.8,0.5-1.1c0.3-0.3,0.7-0.5,1.1-0.5c0.5,0,0.8,0.2,1.1,0.5
				c0.3,0.3,0.5,0.7,0.5,1.1c0,0.5-0.2,0.8-0.5,1.1c-0.3,0.3-0.7,0.5-1.1,0.5C19.7,7.1,19.3,6.9,19,6.6z M21.5,17.7h-2.7V7.9h2.7
				V17.7z"/>
			<path class="st0" d="M29.8,7.7c1.1,0,2.2,0.5,3.1,1.4c0.9,1,1.3,2.2,1.3,3.6c0,1.5-0.4,2.7-1.3,3.6c-0.9,1-1.9,1.5-3.1,1.5
				c-1.2,0-2.2-0.5-2.9-1.4v4.8h-2.7V7.9h2.7V9C27.7,8.1,28.7,7.7,29.8,7.7z M26.8,12.8c0,0.8,0.2,1.5,0.7,2c0.4,0.5,1,0.8,1.6,0.8
				c0.6,0,1.2-0.3,1.7-0.8c0.5-0.5,0.7-1.2,0.7-1.9c0-0.8-0.2-1.5-0.7-2c-0.5-0.5-1-0.8-1.7-0.8c-0.6,0-1.2,0.3-1.6,0.8
				C27,11.3,26.8,12,26.8,12.8z"/>
			<path class="st0" d="M39.4,9.9v4.4c0,0.4,0.1,0.7,0.3,0.9c0.2,0.2,0.4,0.3,0.7,0.3c0.5,0,0.9-0.2,1.3-0.7l1,1.9
				c-0.9,0.8-1.8,1.2-2.7,1.2c-0.9,0-1.7-0.3-2.4-0.9c-0.7-0.6-1-1.5-1-2.5V9.9h-1.2v-2h1.2V4.9h2.8v2.9h2.4v2H39.4z"/>
			<path class="st0" d="M53.9,12.8c0,1.4-0.5,2.6-1.5,3.6c-1,1-2.2,1.5-3.7,1.5c-1.5,0-2.7-0.5-3.7-1.5c-1-1-1.5-2.2-1.5-3.6
				c0-1.4,0.5-2.6,1.5-3.6c1-1,2.2-1.5,3.7-1.5c1.5,0,2.7,0.5,3.7,1.5C53.4,10.2,53.9,11.4,53.9,12.8z M46.2,12.8
				c0,0.8,0.2,1.5,0.7,2c0.5,0.5,1,0.8,1.8,0.8c0.7,0,1.3-0.3,1.8-0.8c0.5-0.5,0.7-1.2,0.7-2c0-0.8-0.2-1.5-0.7-2
				c-0.5-0.5-1-0.8-1.8-0.8c-0.7,0-1.3,0.3-1.8,0.8C46.5,11.3,46.2,12,46.2,12.8z"/>
		</g>
	</g>
	<path class="st0" d="M48.7,0.2c-0.1-0.1,0-0.2,0.1-0.2h11.9c0.1,0,0.3,0.1,0.4,0.2l4.4,7.4c0.1,0.1,0.1,0.3,0,0.4l-3.1,4.1
		c-0.1,0.1,0,0.2,0.1,0.2H68c0.1,0,0.3,0.1,0.4,0.2l3,5c0.1,0.1,0,0.2-0.1,0.2H59.3c-0.1,0-0.3-0.1-0.4-0.2l-3.2-5.4
		c-0.1-0.1-0.1-0.3,0-0.4L59,7.5c0.1-0.1,0.1-0.3,0-0.4l-0.8-1.4c-0.1-0.1-0.2-0.2-0.4-0.2H52c-0.1,0-0.3-0.1-0.4-0.2L48.7,0.2z
		 M82.4,0.2c0.1-0.1,0-0.2-0.1-0.2h-6.2c-0.1,0-0.3,0.1-0.4,0.2L68.3,10c-0.1,0.1-0.1,0.3,0,0.4l4.2,7.1c0.1,0.1,0.2,0.2,0.4,0.2
		h5.7c0.1,0,0.3,0.1,0.4,0.2l1.3,2.2c0.1,0.1,0.2,0.2,0.4,0.2h5.8c0.1,0,0.2-0.1,0.1-0.2l-4.5-7.7c-0.1-0.1-0.2-0.2-0.4-0.2h-5.8
		c-0.1,0-0.3-0.1-0.4-0.2l-0.8-1.3c-0.1-0.1-0.1-0.3,0-0.4L82.4,0.2z M86.2,5.2c0.1,0.1,0.2,0.2,0.4,0.2h5.7c0.1,0,0.3,0.1,0.4,0.2
		L93.4,7c0.1,0.1,0.1,0.3,0,0.4l-7.6,10.2c-0.1,0.1,0,0.2,0.1,0.2h6.3c0.1,0,0.3-0.1,0.4-0.2l7.3-9.8c0.1-0.1,0.1-0.3,0-0.4
		l-4.3-7.2C95.6,0.1,95.5,0,95.3,0h-12c-0.1,0-0.2,0.1-0.1,0.2L86.2,5.2z M94.9,17v0.8h-0.2V17h-0.3v-0.2h0.8V17H94.9z M96.2,17.8
		v-0.7L96,17.8h-0.2l-0.2-0.6v0.7h-0.2v-1h0.3l0.2,0.6l0.2-0.6h0.3v1H96.2z"/>
</g>
</svg>
